<svg width="82" height="82" viewBox="0 0 82 82" fill="none" xmlns="http://www.w3.org/2000/svg">
<g id="Weather / desert">
<path id="Vector" d="M61.5 6.83337C58.797 6.83337 56.1547 7.63491 53.9072 9.13662C51.6598 10.6383 49.9081 12.7728 48.8737 15.27C47.8393 17.7673 47.5686 20.5152 48.096 23.1663C48.6233 25.8173 49.9249 28.2525 51.8362 30.1638C53.7476 32.0751 56.1827 33.3768 58.8338 33.9041C61.4849 34.4314 64.2328 34.1608 66.73 33.1264C69.2273 32.092 71.3617 30.3403 72.8635 28.0928C74.3652 25.8454 75.1667 23.2031 75.1667 20.5C75.1667 16.8754 73.7268 13.3992 71.1638 10.8362C68.6008 8.27325 65.1247 6.83337 61.5 6.83337ZM61.5 27.3334C60.1485 27.3334 58.8274 26.9326 57.7036 26.1817C56.5799 25.4309 55.7041 24.3637 55.1869 23.115C54.6697 21.8664 54.5343 20.4925 54.798 19.1669C55.0617 17.8414 55.7125 16.6238 56.6681 15.6681C57.6238 14.7125 58.8414 14.0617 60.1669 13.798C61.4925 13.5343 62.8664 13.6697 64.115 14.1869C65.3637 14.7041 66.4309 15.5799 67.1817 16.7036C67.9326 17.8274 68.3334 19.1485 68.3334 20.5C68.3334 22.3124 67.6134 24.0504 66.3319 25.3319C65.0504 26.6134 63.3124 27.3334 61.5 27.3334ZM51.25 68.3334H44.4167V61.5C44.4167 60.5939 44.0567 59.7248 43.416 59.0841C42.7752 58.4433 41.9062 58.0834 41 58.0834C40.0939 58.0834 39.2248 58.4433 38.5841 59.0841C37.9433 59.7248 37.5834 60.5939 37.5834 61.5V68.3334H30.75V56.785L42.5375 50.8742C43.101 50.5903 43.5748 50.1559 43.9065 49.6191C44.2382 49.0824 44.4148 48.4643 44.4167 47.8334V34.1667C44.4167 33.2605 44.0567 32.3915 43.416 31.7508C42.7752 31.11 41.9062 30.75 41 30.75C40.0939 30.75 39.2248 31.11 38.5841 31.7508C37.9433 32.3915 37.5834 33.2605 37.5834 34.1667V45.715L30.75 49.1317V27.3334C30.75 26.4272 30.3901 25.5582 29.7493 24.9174C29.1086 24.2767 28.2395 23.9167 27.3334 23.9167C26.4272 23.9167 25.5582 24.2767 24.9174 24.9174C24.2767 25.5582 23.9167 26.4272 23.9167 27.3334V55.965L17.0834 52.5484V44.4167C17.0834 43.5105 16.7234 42.6415 16.0827 42.0008C15.4419 41.36 14.5729 41 13.6667 41C12.7606 41 11.8915 41.36 11.2508 42.0008C10.61 42.6415 10.25 43.5105 10.25 44.4167V54.6667C10.252 55.2977 10.4285 55.9157 10.7602 56.4525C11.0919 56.9892 11.5657 57.4236 12.1292 57.7075L23.9167 63.6184V68.3334H10.25C9.34388 68.3334 8.47484 68.6933 7.83409 69.3341C7.19334 69.9748 6.83337 70.8439 6.83337 71.75C6.83337 72.6562 7.19334 73.5252 7.83409 74.166C8.47484 74.8067 9.34388 75.1667 10.25 75.1667H51.25C52.1562 75.1667 53.0252 74.8067 53.666 74.166C54.3067 73.5252 54.6667 72.6562 54.6667 71.75C54.6667 70.8439 54.3067 69.9748 53.666 69.3341C53.0252 68.6933 52.1562 68.3334 51.25 68.3334Z" fill="#E86A33"/>
</g>
</svg>
