<svg width="82" height="82" viewBox="0 0 82 82" fill="none" xmlns="http://www.w3.org/2000/svg">
<g id="User Interface / History">
<path id="Vector" d="M39.0867 6.83337C30.3277 6.85836 21.9128 10.2463 15.58 16.2975V10.25C15.58 9.34388 15.2201 8.47484 14.5793 7.83409C13.9386 7.19334 13.0695 6.83337 12.1634 6.83337C11.2572 6.83337 10.3882 7.19334 9.74742 7.83409C9.10667 8.47484 8.7467 9.34388 8.7467 10.25V25.625C8.7467 26.5312 9.10667 27.4002 9.74742 28.041C10.3882 28.6817 11.2572 29.0417 12.1634 29.0417H27.5384C28.4445 29.0417 29.3136 28.6817 29.9543 28.041C30.5951 27.4002 30.955 26.5312 30.955 25.625C30.955 24.7189 30.5951 23.8498 29.9543 23.2091C29.3136 22.5683 28.4445 22.2084 27.5384 22.2084H19.3384C22.4534 18.9182 26.3374 16.4539 30.6411 15.0373C34.9449 13.6206 39.5332 13.2961 43.9935 14.0928C48.4538 14.8895 52.646 16.7825 56.1932 19.6014C59.7403 22.4204 62.5311 26.0769 64.3144 30.2421C66.0977 34.4072 66.8176 38.9504 66.4094 43.4628C66.0012 47.9753 64.4776 52.3155 61.9758 56.093C59.474 59.8705 56.0723 62.9669 52.0769 65.1035C48.0815 67.2401 43.6175 68.35 39.0867 68.3334C38.1805 68.3334 37.3115 68.6933 36.6708 69.3341C36.03 69.9748 35.67 70.8439 35.67 71.75C35.67 72.6562 36.03 73.5252 36.6708 74.166C37.3115 74.8067 38.1805 75.1667 39.0867 75.1667C48.1483 75.1667 56.8387 71.567 63.2462 65.1595C69.6537 58.752 73.2534 50.0616 73.2534 41C73.2534 31.9385 69.6537 23.2481 63.2462 16.8406C56.8387 10.4331 48.1483 6.83337 39.0867 6.83337ZM39.0867 27.3334C38.1805 27.3334 37.3115 27.6933 36.6708 28.3341C36.03 28.9748 35.67 29.8439 35.67 30.75V41C35.67 41.9062 36.03 42.7752 36.6708 43.416C37.3115 44.0567 38.1805 44.4167 39.0867 44.4167H45.92C46.8262 44.4167 47.6952 44.0567 48.336 43.416C48.9767 42.7752 49.3367 41.9062 49.3367 41C49.3367 40.0939 48.9767 39.2248 48.336 38.5841C47.6952 37.9433 46.8262 37.5834 45.92 37.5834H42.5034V30.75C42.5034 29.8439 42.1434 28.9748 41.5027 28.3341C40.8619 27.6933 39.9929 27.3334 39.0867 27.3334Z" fill="#E86A33"/>
</g>
</svg>
