<svg width="82" height="82" viewBox="0 0 82 82" fill="none" xmlns="http://www.w3.org/2000/svg">
<g id="Chat / image sending via chat">
<path id="Vector" d="M41 6.83331C35.6647 6.83717 30.4045 8.09042 25.6407 10.4927C20.8769 12.8949 16.7419 16.3795 13.5668 20.6671C10.3918 24.9547 8.26494 29.9264 7.35672 35.1837C6.44849 40.4411 6.7841 45.8381 8.33666 50.9425C8.31687 51.0555 8.31687 51.1711 8.33666 51.2841C9.62394 55.4246 11.7008 59.2766 14.4525 62.6275L7.61916 69.4608C7.14507 69.9413 6.82392 70.5514 6.69622 71.2142C6.56853 71.877 6.64001 72.5628 6.90166 73.185C7.19188 73.8167 7.66791 74.3449 8.2662 74.699C8.86448 75.0531 9.55655 75.2162 10.25 75.1666H41C48.1311 75.1614 55.0819 72.9249 60.8781 68.7708C66.6743 64.6166 71.0254 58.753 73.3217 52.0016V51.7283C74.5124 48.2754 75.1355 44.6523 75.1667 41C75.1667 36.5131 74.2829 32.0703 72.5659 27.925C70.8488 23.7797 68.3321 20.0132 65.1595 16.8405C61.9868 13.6678 58.2203 11.1511 54.075 9.4341C49.9297 7.71706 45.4868 6.83331 41 6.83331ZM41 68.3333H18.4842L19.5092 67.3425L48.2433 38.5741C48.882 37.9481 49.7407 37.5975 50.635 37.5975C51.5293 37.5975 52.388 37.9481 53.0267 38.5741L65.395 50.8741L66.1808 51.6258C64.0913 56.578 60.5881 60.8042 56.1093 63.7759C51.6305 66.7476 46.375 68.3328 41 68.3333ZM15.5117 50.8058L20.91 45.4075C21.5501 44.7711 22.4161 44.4139 23.3187 44.4139C24.2214 44.4139 25.0873 44.7711 25.7275 45.4075L28.7 48.38L19.4067 57.7416C17.763 55.6414 16.4495 53.3025 15.5117 50.8058ZM68.1625 43.9725L57.9125 33.7225C55.9906 31.803 53.3854 30.7248 50.6692 30.7248C47.9529 30.7248 45.3477 31.803 43.4258 33.7225L33.5517 43.5966L30.545 40.6241C28.6245 38.7151 26.0266 37.6435 23.3187 37.6435C20.6108 37.6435 18.013 38.7151 16.0925 40.6241L13.6667 42.9133C13.6326 42.276 13.6326 41.6373 13.6667 41C13.6667 33.7507 16.5464 26.7984 21.6724 21.6724C26.7984 16.5464 33.7507 13.6666 41 13.6666C48.2492 13.6666 55.2016 16.5464 60.3276 21.6724C65.4536 26.7984 68.3333 33.7507 68.3333 41C68.3843 41.9788 68.3843 42.9595 68.3333 43.9383L68.1625 43.9725Z" fill="#E86A33"/>
</g>
</svg>
