<svg width="30" height="25" viewBox="0 0 30 25" fill="none" xmlns="http://www.w3.org/2000/svg">
<rect width="30" height="24.7423" transform="translate(0 0.216492)" fill="white"/>
<path d="M21.2501 9.67009C21.0159 9.47808 20.6991 9.3703 20.3689 9.3703C20.0386 9.3703 19.7218 9.47808 19.4876 9.67009L15.0001 13.3196L10.5751 9.67009C10.3409 9.47808 10.0241 9.3703 9.69387 9.3703C9.36364 9.3703 9.04682 9.47808 8.81262 9.67009C8.69546 9.76592 8.60247 9.87995 8.539 10.0056C8.47554 10.1312 8.44287 10.266 8.44287 10.402C8.44287 10.5381 8.47554 10.6729 8.539 10.7985C8.60247 10.9241 8.69546 11.0382 8.81262 11.134L14.1126 15.5051C14.2288 15.6018 14.3671 15.6785 14.5194 15.7308C14.6717 15.7831 14.8351 15.8101 15.0001 15.8101C15.1651 15.8101 15.3285 15.7831 15.4808 15.7308C15.6332 15.6785 15.7714 15.6018 15.8876 15.5051L21.2501 11.134C21.3673 11.0382 21.4603 10.9241 21.5237 10.7985C21.5872 10.6729 21.6199 10.5381 21.6199 10.402C21.6199 10.266 21.5872 10.1312 21.5237 10.0056C21.4603 9.87995 21.3673 9.76592 21.2501 9.67009Z" fill="black"/>
</svg>
