<svg width="82" height="82" viewBox="0 0 82 82" fill="none" xmlns="http://www.w3.org/2000/svg">
<g id="file-earmark-check 1">
<path id="Vector" d="M55.6267 40.2518C56.1079 39.7706 56.3782 39.118 56.3782 38.4375C56.3782 37.757 56.1079 37.1044 55.6267 36.6233C55.1455 36.1421 54.4929 35.8718 53.8124 35.8718C53.132 35.8718 52.4794 36.1421 51.9982 36.6233L38.4374 50.1891L32.5642 44.3108C32.083 43.8296 31.4304 43.5593 30.7499 43.5593C30.0695 43.5593 29.4169 43.8296 28.9357 44.3108C28.4545 44.7919 28.1842 45.4445 28.1842 46.125C28.1842 46.8055 28.4545 47.4581 28.9357 47.9393L36.6232 55.6268C36.8612 55.8654 37.144 56.0547 37.4553 56.1839C37.7666 56.3131 38.1004 56.3796 38.4374 56.3796C38.7745 56.3796 39.1082 56.3131 39.4196 56.1839C39.7309 56.0547 40.0137 55.8654 40.2517 55.6268L55.6267 40.2518Z" fill="#E86A33"/>
<path id="Vector_2" d="M71.75 71.75V23.0625L48.6875 0H20.5C17.7815 0 15.1744 1.07991 13.2522 3.00216C11.3299 4.9244 10.25 7.53153 10.25 10.25V71.75C10.25 74.4685 11.3299 77.0756 13.2522 78.9978C15.1744 80.9201 17.7815 82 20.5 82H61.5C64.2185 82 66.8256 80.9201 68.7478 78.9978C70.6701 77.0756 71.75 74.4685 71.75 71.75ZM48.6875 15.375C48.6875 17.4139 49.4974 19.3692 50.9391 20.8109C52.3808 22.2526 54.3361 23.0625 56.375 23.0625H66.625V71.75C66.625 73.1092 66.085 74.4128 65.1239 75.3739C64.1628 76.335 62.8592 76.875 61.5 76.875H20.5C19.1408 76.875 17.8372 76.335 16.8761 75.3739C15.915 74.4128 15.375 73.1092 15.375 71.75V10.25C15.375 8.89077 15.915 7.5872 16.8761 6.62608C17.8372 5.66495 19.1408 5.125 20.5 5.125H48.6875V15.375Z" fill="#E86A33"/>
</g>
</svg>
